<svg xmlns="http://www.w3.org/2000/svg" id="SvgjsSvg14402" width="4096" height="1424.3140860078588" version="1.1" xmlns:xlink="http://www.w3.org/1999/xlink" xmlns:svgjs="http://svgjs.com/svgjs"><defs id="SvgjsDefs14403"></defs><g id="SvgjsG14404" transform="translate(328, 328.00000000000006) scale(34.4)" opacity="1"><defs id="SvgjsDefs4912"></defs><g id="SvgjsG4913" transform="scale(0.211864406779661)" opacity="1"><g id="SvgjsG4914" class="qA_r8bOs4" transform="translate(0, 0) scale(0.39379842998899905)" light-content="false" non-strokable="false" fill="#761ac1"><path d="M219.6 48.1c-22.9-22.9-53.4-35.5-85.8-35.5S71 25.2 48.1 48.1s-35.5 53.4-35.5 85.8 12.6 62.9 35.5 85.8 53.4 35.5 85.8 35.5 62.9-12.6 85.8-35.5 35.5-53.4 35.5-85.8-12.7-62.9-35.6-85.8z"></path><path d="M133.8 0C59.9 0 0 59.9 0 133.8s59.9 133.8 133.8 133.8 133.8-59.9 133.8-133.8S207.8 0 133.8 0zm0 260.1c-69.7 0-126.3-56.5-126.3-126.3S64.1 7.6 133.8 7.6s126.3 56.5 126.3 126.3-56.5 126.2-126.3 126.2z"></path></g><g id="SvgjsG4915" class="itDCO2KUIu" transform="translate(22.306658310456417, 22.298781496945864) scale(0.6081173627598632)" light-content="true" non-strokable="false" fill="#ffffff"><path d="M52.336 24.973a18.703 18.703 0 0 1 18.535-1.086c5.934 2.95 9.863 8.82 10.332 15.43s-2.598 12.973-8.059 16.727l-.062.04-.024.015A18.827 18.827 0 0 1 62.5 59.376a18.872 18.872 0 0 1-14.418-6.73l-1.05-1.395a12.553 12.553 0 0 0-9.532-4.375c-.77-.004-1.539.07-2.293.219-1.027.2-2.027.531-2.968.984A31.086 31.086 0 0 0 44.82 66.38a31.063 31.063 0 0 0 21.586 5.22 30.29 30.29 0 0 0 2.394-.398c.16-.032.32-.063.48-.098.794-.176 1.57-.383 2.34-.613.106-.032.215-.059.32-.094v.004a30.985 30.985 0 0 0 5.048-2.102c.14-.074.273-.156.414-.23a30.658 30.658 0 0 0 1.902-1.117c.176-.114.348-.23.523-.348a34.87 34.87 0 0 0 1.692-1.207c.168-.129.332-.258.5-.39a28.69 28.69 0 0 0 1.61-1.384c.136-.125.273-.25.405-.375l.008-.003a31.192 31.192 0 0 0 9.754-23.148A31.187 31.187 0 0 0 83.331 17.26 31.19 31.19 0 0 0 59.43 9.537a31.2 31.2 0 0 0-21.852 12.395 37.454 37.454 0 0 1 14.758 3.043z"></path><path d="M47.699 75.004A18.561 18.561 0 0 1 37.5 78.125a18.722 18.722 0 0 1-14.035-6.312 18.736 18.736 0 0 1 3.39-27.855l.063-.04.024-.015A18.827 18.827 0 0 1 37.5 40.626a18.872 18.872 0 0 1 14.418 6.73l1.05 1.395a12.553 12.553 0 0 0 9.532 4.375c.77.004 1.539-.07 2.293-.22a12.119 12.119 0 0 0 2.968-.984 31.086 31.086 0 0 0-12.582-18.3 31.063 31.063 0 0 0-21.586-5.22 30.29 30.29 0 0 0-2.394.4c-.16.03-.32.062-.48.097-.794.176-1.57.383-2.34.613-.106.031-.215.059-.32.094v-.004a30.985 30.985 0 0 0-5.048 2.102c-.14.074-.273.156-.414.23-.648.352-1.285.723-1.902 1.117-.176.113-.348.23-.523.348-.578.387-1.14.789-1.692 1.207a31.878 31.878 0 0 0-2.11 1.773c-.136.125-.273.25-.41.38a31.206 31.206 0 0 0-9.765 23.136 31.203 31.203 0 0 0 56.195 18.22 37.358 37.358 0 0 1-14.69-3.11z"></path></g><g id="SvgjsG4916" class="text" transform="translate(304.9743121941593, 86.7918625547542) scale(1)" light-content="false" fill="#761ac1"><path d="M-118.08 -56.34C-123.07 -60.17 -129.34 -62.09 -136.89 -62.09C-142.7 -62.09 -147.83 -60.75 -152.3 -58.08C-156.77 -55.41 -160.23 -51.71 -162.67 -46.98C-165.1 -42.25 -166.32 -36.83 -166.32 -30.74C-166.32 -24.64 -165.1 -19.23 -162.67 -14.5C-160.23 -9.77 -156.77 -6.08 -152.3 -3.44C-147.83 -0.8 -142.7 0.52 -136.89 0.52C-129.34 0.52 -123.07 -1.38 -118.08 -5.18C-113.09 -8.98 -109.72 -14.17 -107.98 -20.73L-118.52 -20.73C-119.97 -17.07 -122.28 -14.15 -125.44 -11.97C-128.6 -9.8 -132.48 -8.71 -137.06 -8.71C-140.72 -8.71 -143.99 -9.61 -146.86 -11.41C-149.73 -13.21 -152 -15.78 -153.65 -19.11C-155.31 -22.45 -156.13 -26.33 -156.13 -30.74C-156.13 -35.21 -155.31 -39.11 -153.65 -42.45C-152 -45.79 -149.73 -48.36 -146.86 -50.16C-143.99 -51.96 -140.72 -52.86 -137.06 -52.86C-132.48 -52.86 -128.6 -51.77 -125.44 -49.59C-122.28 -47.42 -119.97 -44.47 -118.52 -40.75L-107.98 -40.75C-109.72 -47.31 -113.09 -52.51 -118.08 -56.34Z M-57.82 -43.37C-61.19 -46.97 -65.66 -48.76 -71.23 -48.76C-75.18 -48.76 -78.66 -47.78 -81.68 -45.8C-84.7 -43.83 -86.85 -41.04 -88.13 -37.44L-88.13 -64.44L-98.05 -64.44L-98.05 0L-88.13 0L-88.13 -25.51C-88.13 -30.39 -86.94 -34.09 -84.55 -36.62C-82.17 -39.14 -79.01 -40.41 -75.06 -40.41C-71.23 -40.41 -68.21 -39.23 -66.01 -36.88C-63.8 -34.53 -62.7 -31.2 -62.7 -26.91L-62.7 0L-52.77 0L-52.77 -27.95C-52.77 -34.63 -54.45 -39.77 -57.82 -43.37Z M-10.8 -45.37C-13.87 -47.52 -17.59 -48.59 -21.94 -48.59C-26.12 -48.59 -29.85 -47.6 -33.13 -45.63C-36.41 -43.66 -38.98 -40.81 -40.84 -37.1C-42.7 -33.38 -43.63 -29.03 -43.63 -24.03C-43.63 -18.98 -42.7 -14.6 -40.84 -10.89C-38.98 -7.17 -36.41 -4.32 -33.13 -2.35C-29.85 -0.38 -26.12 0.61 -21.94 0.61C-17.59 0.61 -13.87 -0.46 -10.8 -2.61C-7.72 -4.76 -5.54 -7.61 -4.27 -11.15L-4.27 0L5.66 0L5.66 -47.98L-4.27 -47.98L-4.27 -36.83C-5.54 -40.38 -7.72 -43.22 -10.8 -45.37ZM-29.48 -35.66C-26.84 -38.47 -23.31 -39.88 -18.9 -39.88C-16.11 -39.88 -13.61 -39.23 -11.41 -37.92C-9.2 -36.62 -7.46 -34.76 -6.18 -32.35C-4.91 -29.94 -4.27 -27.17 -4.27 -24.03C-4.27 -20.84 -4.91 -18.05 -6.18 -15.67C-7.46 -13.29 -9.2 -11.45 -11.41 -10.14C-13.61 -8.84 -16.11 -8.19 -18.9 -8.19C-23.31 -8.19 -26.84 -9.59 -29.48 -12.41C-32.12 -15.22 -33.44 -19.1 -33.44 -24.03C-33.44 -28.97 -32.12 -32.84 -29.48 -35.66Z M17.94 -66.09C16.78 -64.99 16.2 -63.6 16.2 -61.91C16.2 -60.23 16.78 -58.87 17.94 -57.82C19.1 -56.78 20.64 -56.25 22.55 -56.25C24.47 -56.25 26.02 -56.78 27.21 -57.82C28.4 -58.87 29 -60.23 29 -61.91C29 -63.6 28.4 -64.99 27.21 -66.09C26.02 -67.2 24.47 -67.75 22.55 -67.75C20.64 -67.75 19.1 -67.2 17.94 -66.09ZM27.52 -47.98L17.59 -47.98L17.59 0L27.52 0Z M79.77 -43.37C76.4 -46.97 71.93 -48.76 66.36 -48.76C62.41 -48.76 58.92 -47.78 55.91 -45.8C52.89 -43.83 50.74 -41.04 49.46 -37.44L49.46 -47.98L39.53 -47.98L39.53 0L49.46 0L49.46 -25.51C49.46 -30.39 50.65 -34.09 53.03 -36.62C55.41 -39.14 58.58 -40.41 62.52 -40.41C66.36 -40.41 69.37 -39.23 71.58 -36.88C73.79 -34.53 74.89 -31.2 74.89 -26.91L74.89 0L84.82 0L84.82 -27.95C84.82 -34.63 83.13 -39.77 79.77 -43.37Z M124.79 0L136.02 0L119.56 -23.77L135.41 -47.98L124.44 -47.98L114.25 -31.44L102.75 -47.98L91.52 -47.98L107.54 -24.9L91.7 0L102.75 0L113.03 -16.98Z M167.02 -8.62L162.23 -8.62C159.68 -8.62 157.89 -9.14 156.88 -10.19C155.86 -11.23 155.35 -13.12 155.35 -15.85L155.35 -39.53L166.93 -39.53L166.93 -47.98L155.35 -47.98L155.35 -59.91L145.34 -59.91L145.34 -47.98L138.46 -47.98L138.46 -39.53L145.34 -39.53L145.34 -16.02C145.34 -10.28 146.66 -6.17 149.3 -3.7C151.94 -1.23 155.82 0 160.92 0L167.02 0Z"></path></g></g></g></svg>