<svg xmlns="http://www.w3.org/2000/svg" id="SvgjsSvg14402" width="768" height="768" version="1.1"
    xmlns:xlink="http://www.w3.org/1999/xlink" xmlns:svgjs="http://svgjs.com/svgjs">
    <defs id="SvgjsDefs14403"></defs>
    <g id="SvgjsG14404" transform="translate(0, 0) scale(34.4)" opacity="1">
        <defs id="SvgjsDefs4912"></defs>
        <g id="SvgjsG4913" transform="scale(0.211864406779661)" opacity="1">
            <g id="SvgjsG4914" class="qA_r8bOs4" transform="translate(0, 0) scale(0.39379842998899905)"
                light-content="false" non-strokable="false" fill="#761ac1">
                <path
                    d="M219.6 48.1c-22.9-22.9-53.4-35.5-85.8-35.5S71 25.2 48.1 48.1s-35.5 53.4-35.5 85.8 12.6 62.9 35.5 85.8 53.4 35.5 85.8 35.5 62.9-12.6 85.8-35.5 35.5-53.4 35.5-85.8-12.7-62.9-35.6-85.8z">
                </path>
                <path
                    d="M133.8 0C59.9 0 0 59.9 0 133.8s59.9 133.8 133.8 133.8 133.8-59.9 133.8-133.8S207.8 0 133.8 0zm0 260.1c-69.7 0-126.3-56.5-126.3-126.3S64.1 7.6 133.8 7.6s126.3 56.5 126.3 126.3-56.5 126.2-126.3 126.2z">
                </path>
            </g>
            <g id="SvgjsG4915" class="itDCO2KUIu"
                transform="translate(22.306658310456417, 22.298781496945864) scale(0.6081173627598632)"
                light-content="true" non-strokable="false" fill="#ffffff">
                <path
                    d="M52.336 24.973a18.703 18.703 0 0 1 18.535-1.086c5.934 2.95 9.863 8.82 10.332 15.43s-2.598 12.973-8.059 16.727l-.062.04-.024.015A18.827 18.827 0 0 1 62.5 59.376a18.872 18.872 0 0 1-14.418-6.73l-1.05-1.395a12.553 12.553 0 0 0-9.532-4.375c-.77-.004-1.539.07-2.293.219-1.027.2-2.027.531-2.968.984A31.086 31.086 0 0 0 44.82 66.38a31.063 31.063 0 0 0 21.586 5.22 30.29 30.29 0 0 0 2.394-.398c.16-.032.32-.063.48-.098.794-.176 1.57-.383 2.34-.613.106-.032.215-.059.32-.094v.004a30.985 30.985 0 0 0 5.048-2.102c.14-.074.273-.156.414-.23a30.658 30.658 0 0 0 1.902-1.117c.176-.114.348-.23.523-.348a34.87 34.87 0 0 0 1.692-1.207c.168-.129.332-.258.5-.39a28.69 28.69 0 0 0 1.61-1.384c.136-.125.273-.25.405-.375l.008-.003a31.192 31.192 0 0 0 9.754-23.148A31.187 31.187 0 0 0 83.331 17.26 31.19 31.19 0 0 0 59.43 9.537a31.2 31.2 0 0 0-21.852 12.395 37.454 37.454 0 0 1 14.758 3.043z">
                </path>
                <path
                    d="M47.699 75.004A18.561 18.561 0 0 1 37.5 78.125a18.722 18.722 0 0 1-14.035-6.312 18.736 18.736 0 0 1 3.39-27.855l.063-.04.024-.015A18.827 18.827 0 0 1 37.5 40.626a18.872 18.872 0 0 1 14.418 6.73l1.05 1.395a12.553 12.553 0 0 0 9.532 4.375c.77.004 1.539-.07 2.293-.22a12.119 12.119 0 0 0 2.968-.984 31.086 31.086 0 0 0-12.582-18.3 31.063 31.063 0 0 0-21.586-5.22 30.29 30.29 0 0 0-2.394.4c-.16.03-.32.062-.48.097-.794.176-1.57.383-2.34.613-.106.031-.215.059-.32.094v-.004a30.985 30.985 0 0 0-5.048 2.102c-.14.074-.273.156-.414.23-.648.352-1.285.723-1.902 1.117-.176.113-.348.23-.523.348-.578.387-1.14.789-1.692 1.207a31.878 31.878 0 0 0-2.11 1.773c-.136.125-.273.25-.41.38a31.206 31.206 0 0 0-9.765 23.136 31.203 31.203 0 0 0 56.195 18.22 37.358 37.358 0 0 1-14.69-3.11z">
                </path>
            </g>
        </g>
    </g>
</svg>